<svg version="1.1" viewBox="0.0 0.0 480.0 480.0" fill="none" stroke="none" stroke-linecap="square"
     stroke-miterlimit="10"
     xmlns="http://www.w3.org/2000/svg">
  <clipPath id="g3de08e889ae_0_0.0">
    <path d="m0 0l480.0 0l0 480.0l-480.0 0l0 -480.0z" clip-rule="nonzero"/>
  </clipPath>
  <g clip-path="url(#g3de08e889ae_0_0.0)">
    <defs>
      <linearGradient id="g3de08e889ae_0_0.1" gradientUnits="userSpaceOnUse"
                      gradientTransform="matrix(26.054222497326194 0.0 0.0 26.054222497326194 0.0 0.0)"
                      spreadMethod="pad" x1="-9.2115587031864" y1="9.21152564825749"
                      x2="9.21152564825749" y2="27.6346761095592">
        <stop offset="0.0" stop-color="#515ada"/>
        <stop offset="1.0" stop-color="#76abdf"/>
      </linearGradient>
    </defs>
    <path fill="url(#g3de08e889ae_0_0.1)" d="m0 0l480.0 0l0 480.0l-480.0 0z" fill-rule="evenodd"/>
    <path fill="#000000" fill-opacity="0.0" d="m2.9081365E-4 18.898802l480.0 0l0 442.2047l-480.0 0z"
          fill-rule="evenodd"/>
    <path fill="#eeeeee"
          d="m242.26006 281.52618l58.85939 116.875l64.671875 0l0 -2.796875l-67.25 -129.125q12.890625 -5.796875 23.3125 -13.734375q10.421875 -7.953125 17.9375 -18.703125q7.3125 -10.53125 11.28125 -23.953125q3.984375 -13.421875 3.984375 -30.1875q0 -23.203125 -8.0625 -40.8125q-8.0625 -17.625 -22.875 -29.4375q-15.046875 -11.8125 -36.109375 -17.9375q-21.046875 -6.125 -47.04689 -6.125l-104.84375 0l0 312.8125l60.375 0l0 -116.875l45.765625 0zm-45.765625 -48.984375l0 -97.96875l44.46875 0q12.46875 0 22.125015 3.015625q9.671875 3.0 16.34375 8.578125q7.515625 6.234375 11.265625 15.796875q3.765625 9.5625 3.765625 22.015625q0 10.3125 -2.90625 18.703125q-2.890625 8.375 -8.484375 14.390625q-6.65625 7.515625 -17.296875 11.5q-10.625015 3.96875 -24.593765 3.96875l-44.6875 0z"
          fill-rule="nonzero"/>
  </g>
</svg>
